<?xml version="1.0" encoding="UTF-8" standalone="no"?><!-- Generator: Gravit.io --><svg xmlns="http://www.w3.org/2000/svg" xmlns:xlink="http://www.w3.org/1999/xlink" style="isolation:isolate" viewBox="740 560 654 200" width="654pt" height="200pt"><text transform="matrix(1,0,0,1,960,702.66)" style="font-family:'Source Code Pro';font-weight:300;font-size:120px;font-style:normal;fill:#000000;stroke:none;">SemVer</text><path d="M 760 560 L 920 560 C 931.038 560 940 568.962 940 580 L 940 740 C 940 751.038 931.038 760 920 760 L 760 760 C 748.962 760 740 751.038 740 740 L 740 580 C 740 568.962 748.962 560 760 560 Z" style="stroke:none;fill:#3B3030;stroke-miterlimit:10;"/><clipPath id="_clipPath_blwSnr3WsVM6CANQd8PDHsfBFRbT3QST"><path d="M 760 560 L 920 560 C 931.038 560 940 568.962 940 580 L 940 740 C 940 751.038 931.038 760 920 760 L 760 760 C 748.962 760 740 751.038 740 740 L 740 580 C 740 568.962 748.962 560 760 560 Z" style="stroke:none;fill:#3B3030;stroke-miterlimit:10;"/></clipPath><g clip-path="url(#_clipPath_blwSnr3WsVM6CANQd8PDHsfBFRbT3QST)"><text transform="matrix(1,0,0,1,779,695.55)" style="font-family:'Source Code Pro';font-weight:300;font-size:100px;font-style:normal;fill:#ffffff;stroke:none;">$_</text></g></svg>